<svg width="16" height="16" viewBox="0 0 16 16" fill="none" xmlns="http://www.w3.org/2000/svg">
<g clip-path="url(#clip0_88_40)">
<path d="M8.00094 11.1414L2.14129 8.00125L4.53591 6.71673L3.46551 6.14307L0.000488281 8.00125L8.00094 12.2875L16.0002 8.00125L12.5352 6.14307L11.4671 6.71673L13.8606 8.00125L8.00094 11.1414Z" fill="#373737"/>
<path d="M8.00094 14.8538L2.14129 11.7136L4.53591 10.4291L3.46551 9.85547L0.000488281 11.7136L8.00094 15.9999L16.0002 11.7136L12.5352 9.85547L11.4671 10.4291L13.8606 11.7136L8.00094 14.8538Z" fill="#373737"/>
<path d="M8.00094 -0.000244141L0.000488281 4.28604L8.00094 8.57107L16.0002 4.28479L8.00094 -0.000244141ZM8.00094 1.14584L13.8606 4.28604L8.00094 7.42624L2.14129 4.28604L8.00094 1.14584Z" fill="#373737"/>
</g>
<defs>
<clipPath id="clip0_88_40">
<rect width="16" height="16" fill="white"/>
</clipPath>
</defs>
</svg>
