<svg width="27" height="31" viewBox="0 0 27 31" fill="none" xmlns="http://www.w3.org/2000/svg">
<path d="M11.9347 19.7453C10.5574 19.7453 9.24938 19.4482 8.07138 18.9146C7.25513 18.5448 6.847 18.3599 6.62041 18.296C6.3849 18.2296 6.24841 18.2055 6.00438 18.1872C5.7696 18.1697 5.59383 18.1832 5.24229 18.21C5.0985 18.221 4.97166 18.2364 4.8515 18.2582C2.9283 18.6064 1.42313 20.1114 1.07495 22.0347C1 22.4487 1 22.9453 1 23.9381V26.6186C1 27.4935 1 27.9309 1.17025 28.265C1.32003 28.559 1.559 28.7979 1.85293 28.9477C2.18708 29.1179 2.62451 29.1179 3.49937 29.1179H7.87327M18.1832 7.24843C18.1832 10.6993 15.3856 13.4969 11.9347 13.4969C8.48384 13.4969 5.68632 10.6993 5.68632 7.24843C5.68632 3.79751 8.48384 1 11.9347 1C15.3856 1 18.1832 3.79751 18.1832 7.24843ZM14.4182 29.1179L17.5815 28.4853C17.8573 28.4301 17.9953 28.4025 18.1238 28.352C18.238 28.3073 18.3464 28.2492 18.447 28.1791C18.5603 28.1001 18.6598 28.0007 18.8586 27.8017L25.3529 21.3074C26.2157 20.4446 26.2157 19.0459 25.3529 18.1832C24.4903 17.3204 23.0915 17.3204 22.2287 18.1832L15.7344 24.6775C15.5356 24.8765 15.4361 24.9758 15.357 25.0893C15.2869 25.1897 15.2289 25.2983 15.1841 25.4125C15.1336 25.541 15.1061 25.6789 15.0508 25.9547L14.4182 29.1179Z" stroke="#1F41AF" stroke-width="2" stroke-linecap="round" stroke-linejoin="round"/>
</svg>
