<svg width="15" height="13" viewBox="0 0 15 13" fill="none" xmlns="http://www.w3.org/2000/svg">
<path d="M2.64397 12.26C2.40857 12.2602 2.17318 12.2556 1.93797 12.246L1.82797 12.221C1.54377 12.1547 1.28485 12.0076 1.08253 11.7973C0.88021 11.587 0.743165 11.3225 0.687973 11.036L0.669973 10.944C0.664973 10.838 0.659973 10.538 0.659973 10.277V1.43398C0.660501 1.308 0.710852 1.18733 0.800034 1.09834C0.889216 1.00934 1.00998 0.959247 1.13597 0.958984H11.77C11.8959 0.959249 12.0165 1.00938 12.1056 1.0984C12.1946 1.18742 12.2447 1.30809 12.245 1.43398V2.96298H13.836C13.9695 2.96351 14.0974 3.01678 14.1918 3.11118C14.2862 3.20559 14.3394 3.33348 14.34 3.46698V10.659C14.34 11.0833 14.1714 11.4903 13.8713 11.7904C13.5713 12.0904 13.1643 12.259 12.74 12.259L2.64397 12.26ZM2.64397 11.151H11.216C11.1649 10.9923 11.1389 10.8267 11.139 10.66V8.48598C11.1371 8.44968 11.1361 8.41334 11.136 8.37698V2.06698H1.76897V10.277C1.76897 10.495 1.77197 10.707 1.77497 10.821L1.77697 10.829C1.79189 10.9042 1.82809 10.9736 1.88126 11.0289C1.93444 11.0842 2.00236 11.1231 2.07697 11.141L2.08697 11.143C2.21997 11.147 2.44497 11.151 2.64397 11.151ZM9.90997 3.81498H2.94997V4.92398H9.90997V3.81498ZM5.90997 6.19798H2.94997V9.72998H5.90997V6.19798ZM9.91197 6.22398H7.03297V7.33298H9.91097L9.91197 6.22398ZM9.91197 8.63398H7.03297V9.74198H9.91097L9.91197 8.63398ZM12.248 4.07098V10.66C12.248 10.7905 12.2998 10.9156 12.3921 11.0079C12.4843 11.1001 12.6095 11.152 12.74 11.152C12.8705 11.152 12.9956 11.1001 13.0879 11.0079C13.1801 10.9156 13.232 10.7905 13.232 10.66V4.06998L12.248 4.07098Z" fill="black"/>
</svg>
