<svg width="48" height="48" viewBox="0 0 48 48" fill="none" xmlns="http://www.w3.org/2000/svg">
<path d="M17.5 21.6L20 29H28L30.5 21.6L24 17L17.5 21.6Z" fill="black"/>
<path d="M45.5 19.1C44.3716 14.2418 41.6331 9.90819 37.7297 6.80361C33.8263 3.69903 28.9875 2.00609 24 2C22.3489 2.0085 20.7044 2.20987 19.1 2.6C13.8732 3.84537 9.28293 6.96047 6.19505 11.3576C3.10718 15.7548 1.73523 21.1299 2.33804 26.4691C2.94085 31.8082 5.47673 36.7422 9.46728 40.3402C13.4578 43.9382 18.6271 45.9514 24 46C25.6448 45.9771 27.2844 45.8098 28.9 45.5C34.5954 44.1888 39.5396 40.6749 42.6506 35.7273C45.7616 30.7796 46.7861 24.8012 45.5 19.1ZM38.5 34.7L37.4 31.4H29.5L26.9 39L29.7 41L28 41.5C26.6856 41.7814 25.344 41.9156 24 41.9C22.0638 41.9103 20.1388 41.6063 18.3 41L21.1 39L18.5 31.4H10.6L9.49999 34.7C8.02397 32.7118 7.0001 30.4252 6.49999 28C6.1425 26.6634 5.97419 25.2833 5.99999 23.9L8.79999 25.9L15.1 21.1L12.8 13.5H9.39999C11.6918 10.3828 14.9127 8.07213 18.6 6.9L17.5 10.1L24 14.7L30.5 10.1L29.4 6.8C33.128 7.99866 36.3826 10.3434 38.7 13.5H35.2L32.9 21.1L39.2 25.9L42 23.8C41.9882 27.7078 40.7655 31.5159 38.5 34.7Z" fill="black"/>
</svg>
