<svg width="32" height="24" viewBox="0 0 32 24" fill="none" xmlns="http://www.w3.org/2000/svg">
<path d="M22.0519 2.92536C22.503 2.75811 22.9909 2.66675 23.5002 2.66675C25.8014 2.66675 27.6669 4.53223 27.6669 6.83341C27.6669 9.13458 25.8014 11.0001 23.5002 11.0001C22.9909 11.0001 22.503 10.9087 22.0519 10.7414" stroke="#1F41AF" stroke-width="2" stroke-linecap="round"/>
<path d="M1 22.6667C2.15228 18.8214 5.11663 17.6667 11.8333 17.6667C18.55 17.6667 21.5143 18.8214 22.6667 22.6667" stroke="#1F41AF" stroke-width="2" stroke-linecap="round"/>
<path d="M24.3334 16C28.3384 16.1583 30.2154 17.0638 31 19.3333" stroke="#1F41AF" stroke-width="2" stroke-linecap="round"/>
<path d="M17.6667 6.83333C17.6667 10.055 15.055 12.6667 11.8333 12.6667C8.61167 12.6667 6 10.055 6 6.83333C6 3.61167 8.61167 1 11.8333 1C15.055 1 17.6667 3.61167 17.6667 6.83333Z" stroke="#1F41AF" stroke-width="2"/>
</svg>
